<?xml version="1.0" encoding="UTF-8" standalone="no"?>
<!DOCTYPE svg PUBLIC "-//W3C//DTD SVG 1.1//EN" "http://www.w3.org/Graphics/SVG/1.1/DTD/svg11.dtd">
<!-- Created with Vectornator (http://vectornator.io/) -->
<svg height="100%" stroke-miterlimit="10" style="fill-rule:nonzero;clip-rule:evenodd;stroke-linecap:round;stroke-linejoin:round;" version="1.1" viewBox="0 0 841.89 595.276" width="100%" xml:space="preserve" xmlns="http://www.w3.org/2000/svg" xmlns:vectornator="http://vectornator.io" xmlns:xlink="http://www.w3.org/1999/xlink">
<defs/>
<clipPath id="ArtboardFrame">
<rect height="595.276" width="841.89" x="0" y="0"/>
</clipPath>
<g clip-path="url(#ArtboardFrame)" id="Untitled" vectornator:layerName="Untitled">
<g opacity="1">
<clipPath id="ClipPath">
<path d="M0 595.276L841.89 595.276L841.89 0L0 0L0 595.276Z"/>
</clipPath>
<g clip-path="url(#ClipPath)">
<path d="M101.53 140.217L101.53 172.522L136.619 172.522L136.619 191.185L101.53 191.185L101.53 263.872C101.53 280.578 106.26 290.051 119.915 290.051C126.595 290.051 130.492 289.497 134.115 288.384L135.229 306.764C130.492 308.714 122.972 310.386 113.503 310.386C102.09 310.386 92.8968 306.487 87.0438 299.794C80.0868 292.561 77.5808 280.578 77.5808 264.702L77.5808 191.185L56.6918 191.185L56.6918 172.522L77.5808 172.522L77.5808 147.733L101.53 140.217Z" fill="#d31145" fill-rule="nonzero" opacity="1" stroke="none"/>
<path d="M164.187 214.577C164.187 198.701 163.91 185.058 163.071 172.522L184.516 172.522L185.353 198.978L186.466 198.978C192.596 180.875 207.355 169.459 223.784 169.459C226.571 169.459 228.521 169.736 230.748 170.296L230.748 193.411C228.238 192.851 225.734 192.575 222.395 192.575C205.122 192.575 192.872 205.664 189.529 224.05C188.969 227.39 188.416 231.29 188.416 235.46L188.416 307.317L164.187 307.317L164.187 214.577Z" fill="#d31145" fill-rule="nonzero" opacity="1" stroke="none"/>
<path d="M324.868 238.523C298.136 237.97 267.783 242.7 267.783 268.885C267.783 284.761 278.367 292.277 290.899 292.277C308.441 292.277 319.584 281.138 323.478 269.721C324.314 267.212 324.868 264.425 324.868 261.922L324.868 238.523ZM348.547 275.011C348.547 286.711 349.106 298.127 350.774 307.317L328.494 307.317L326.544 290.327L325.708 290.327C318.188 300.907 303.709 310.386 284.492 310.386C257.197 310.386 243.274 291.164 243.274 271.671C243.274 239.083 272.237 221.263 324.314 221.54L324.314 218.754C324.314 207.621 321.252 187.562 293.679 187.562C281.146 187.562 268.06 191.461 258.591 197.588L253.021 181.435C264.163 174.195 280.316 169.466 297.305 169.466C338.517 169.466 348.547 197.588 348.547 224.597L348.547 275.011Z" fill="#d31145" fill-rule="nonzero" opacity="1" stroke="none"/>
<path d="M390.588 307.317L390.588 191.185L371.649 191.185L371.649 172.523L390.588 172.523L390.588 165.283C390.588 129.638 411.478 106.522 449.349 106.522C461.886 106.522 476.648 110.422 483.611 115.428L476.648 134.091C470.792 129.914 460.212 126.298 448.236 126.298C422.337 126.298 414.817 144.4 414.817 165.836L414.817 172.523L493.078 172.523L493.078 307.317L468.848 307.317L468.848 191.185L414.817 191.185L414.817 307.317L390.588 307.317Z" fill="#d31145" fill-rule="nonzero" opacity="1" stroke="none"/>
<path d="M533.729 209.01C533.729 195.084 533.446 183.661 532.616 172.522L554.335 172.522L555.732 194.801L556.285 194.801C562.971 181.988 578.564 169.465 600.85 169.465C619.512 169.465 648.471 180.598 648.471 226.836L648.471 307.316L623.966 307.316L623.966 229.616C623.966 207.897 615.883 189.795 592.773 189.795C576.614 189.795 564.078 201.204 559.908 214.853C558.789 217.916 558.235 222.093 558.235 226.276L558.235 307.316L533.729 307.316L533.729 209.01Z" fill="#d31145" fill-rule="nonzero" opacity="1" stroke="none"/>
<path d="M759.294 238.523C732.562 237.97 702.206 242.7 702.206 268.885C702.206 284.761 712.793 292.277 725.322 292.277C742.865 292.277 754.011 281.138 757.904 269.721C758.741 267.212 759.294 264.425 759.294 261.922L759.294 238.523ZM782.97 275.011C782.97 286.711 783.523 298.127 785.197 307.317L762.917 307.317L760.974 290.327L760.131 290.327C752.614 300.907 738.128 310.386 718.913 310.386C691.627 310.386 677.701 291.164 677.701 271.671C677.701 239.083 706.66 221.263 758.741 221.54L758.741 218.754C758.741 207.621 755.678 187.562 728.102 187.562C715.573 187.562 702.49 191.461 693.017 197.588L687.444 181.435C698.59 174.195 714.743 169.466 731.732 169.466C772.944 169.466 782.97 197.588 782.97 224.597L782.97 275.011Z" fill="#d31145" fill-rule="nonzero" opacity="1" stroke="none"/>
<path d="M782.43 389.271L762.957 389.271L762.957 395.417L774.887 395.417L774.887 413.049C773.137 413.925 769.707 414.633 764.707 414.633C750.845 414.633 741.9 405.771 741.9 390.764C741.9 375.937 751.283 366.985 765.672 366.985C771.638 366.985 775.583 368.041 778.749 369.534L780.679 363.304C778.131 362.069 772.693 360.582 765.846 360.582C746.019 360.582 733.83 373.479 733.83 391.111C733.83 400.327 736.984 408.223 742.068 413.134C747.859 418.661 755.234 420.946 764.179 420.946C772.165 420.946 779.013 419.015 782.43 417.702L782.43 389.271ZM689.658 395.764L695.45 378.659C696.679 375.062 697.561 371.374 698.436 367.951L698.609 367.951C699.491 371.374 700.366 374.882 701.68 378.743L707.561 395.764L689.658 395.764ZM709.047 401.73L715.367 420.334L723.527 420.334L703.353 361.194L694.221 361.194L674.046 420.334L681.936 420.334L688.082 401.73L709.047 401.73ZM584.196 420.334L591.841 420.334L591.841 397.778L597.536 391.292L616.926 420.334L625.961 420.334L602.884 386.291L624.301 361.194L614.822 361.194L596.745 383.396C595.258 385.326 593.675 387.43 592.098 389.709L591.841 389.709L591.841 361.194L584.196 361.194L584.196 420.334ZM519.727 420.334L519.727 395.069C519.727 385.236 519.637 378.131 519.199 370.673L519.456 370.583C522.365 376.992 526.304 383.743 530.422 390.326L549.207 420.334L556.923 420.334L556.923 361.194L549.734 361.194L549.734 385.938C549.734 395.153 549.909 402.348 550.609 410.244L550.346 410.327C547.63 404.278 544.117 398.042 539.818 391.111L520.955 361.194L512.532 361.194L512.532 420.334L519.727 420.334ZM460.329 395.764L466.121 378.659C467.35 375.062 468.225 371.374 469.107 367.951L469.281 367.951C470.156 371.374 471.037 374.882 472.35 378.743L478.232 395.764L460.329 395.764ZM479.718 401.73L486.038 420.334L494.191 420.334L474.017 361.194L464.891 361.194L444.717 420.334L452.607 420.334L458.745 401.73L479.718 401.73ZM400.496 391.993L406.809 391.993C415.146 391.993 422.077 395.417 422.077 403.396C422.077 411.994 414.795 414.896 406.902 414.896C404.18 414.896 402.069 414.8 400.496 414.536L400.496 391.993ZM400.496 367.166C401.722 366.902 403.737 366.638 407.25 366.638C414.966 366.638 420.147 369.444 420.147 376.284C420.147 381.993 415.407 386.291 407.42 386.291L400.496 386.291L400.496 367.166ZM392.858 420.154C395.403 420.508 399.441 420.856 404.708 420.856C414.355 420.856 421.022 419.105 425.063 415.328C428.133 412.522 430.147 408.577 430.147 403.487C430.147 394.709 423.567 390.063 417.952 388.75L417.952 388.486C424.094 386.291 427.959 381.285 427.959 375.493C427.959 370.847 426.029 367.339 422.952 365.055C419.355 362.069 414.445 360.762 406.809 360.762C401.542 360.762 396.194 361.29 392.858 362.069L392.858 420.154ZM350.709 420.334L358.432 420.334L358.432 367.693L376.508 367.693L376.508 361.194L332.726 361.194L332.726 367.693L350.709 367.693L350.709 420.334ZM290.79 395.764L296.581 378.659C297.808 375.062 298.683 371.374 299.561 367.951L299.738 367.951C300.613 371.374 301.492 374.882 302.808 378.743L308.686 395.764L290.79 395.764ZM310.176 401.73L316.496 420.334L324.653 420.334L304.475 361.194L295.349 361.194L275.171 420.334L283.067 420.334L289.207 401.73L310.176 401.73ZM245.958 420.334L267.098 361.194L258.941 361.194L248.938 390.416C246.222 398.139 243.851 405.591 242.184 412.438L242.004 412.438C240.343 405.507 238.149 398.307 235.69 390.326L226.478 361.194L218.145 361.194L237.531 420.334L245.958 420.334ZM191.21 420.334L198.935 420.334L198.935 361.193L191.21 361.193L191.21 420.334ZM136.615 367.339C137.925 366.985 140.471 366.722 144.161 366.722C152.234 366.722 157.755 370.055 157.755 377.687C157.755 384.451 152.582 388.923 144.425 388.923L136.615 388.923L136.615 367.339ZM128.976 420.334L136.615 420.334L136.615 394.709L143.804 394.709C150.738 394.973 153.985 398.042 155.738 406.202C157.321 413.577 158.63 418.577 159.599 420.334L167.496 420.334C166.269 418.049 164.866 412.342 162.933 404.098C161.53 397.959 158.808 393.75 154.335 392.167L154.335 391.903C160.478 389.799 165.391 384.625 165.391 376.896C165.391 372.25 163.634 368.214 160.739 365.583C157.141 362.333 151.79 360.762 143.633 360.762C138.452 360.762 132.838 361.29 128.976 361.985L128.976 420.334ZM82.1177 367.429C83.4337 367.075 85.9787 366.812 89.3127 366.812C97.6487 366.812 103.264 370.583 103.264 378.479C103.264 386.465 97.6487 391.028 88.4377 391.028C85.8927 391.028 83.7837 390.848 82.1177 390.416L82.1177 367.429ZM74.4857 420.334L82.1177 420.334L82.1177 396.639C83.8777 397.084 85.9787 397.167 88.2597 397.167C95.7187 397.167 102.209 394.973 106.334 390.68C109.32 387.604 110.893 383.396 110.893 378.048C110.893 372.777 108.879 368.478 105.722 365.666C102.209 362.513 96.6807 360.762 89.1347 360.762C82.9927 360.762 78.1697 361.29 74.4857 361.901L74.4857 420.334Z" fill="#d31145" fill-rule="nonzero" opacity="1" stroke="none"/>
</g>
</g>
</g>
</svg>
